<svg width="14" height="13" viewBox="0 0 14 13" fill="none" xmlns="http://www.w3.org/2000/svg">
<path d="M0.8125 0.9375C0.502686 0.9375 0.25 1.19019 0.25 1.5C0.25 1.80981 0.502686 2.0625 0.8125 2.0625H2.06055L3.53711 7.96875C3.66235 8.46973 4.1106 8.8125 4.62695 8.8125H11.0781C11.5857 8.8125 12.0164 8.47632 12.1504 7.98633L13.6094 2.625H4.1875L4.46875 3.75H12.1504L11.0781 7.6875H4.62695L3.15039 1.78125C3.02515 1.28027 2.5769 0.9375 2.06055 0.9375H0.8125ZM10.375 8.8125C9.44995 8.8125 8.6875 9.57495 8.6875 10.5C8.6875 11.425 9.44995 12.1875 10.375 12.1875C11.3 12.1875 12.0625 11.425 12.0625 10.5C12.0625 9.57495 11.3 8.8125 10.375 8.8125ZM5.3125 8.8125C4.38745 8.8125 3.625 9.57495 3.625 10.5C3.625 11.425 4.38745 12.1875 5.3125 12.1875C6.23755 12.1875 7 11.425 7 10.5C7 9.57495 6.23755 8.8125 5.3125 8.8125ZM5.3125 9.9375C5.62891 9.9375 5.875 10.1836 5.875 10.5C5.875 10.8164 5.62891 11.0625 5.3125 11.0625C4.99609 11.0625 4.75 10.8164 4.75 10.5C4.75 10.1836 4.99609 9.9375 5.3125 9.9375ZM10.375 9.9375C10.6914 9.9375 10.9375 10.1836 10.9375 10.5C10.9375 10.8164 10.6914 11.0625 10.375 11.0625C10.0586 11.0625 9.8125 10.8164 9.8125 10.5C9.8125 10.1836 10.0586 9.9375 10.375 9.9375Z" fill="white"/>
</svg>
